<?xml version="1.0" standalone="no"?>
<!DOCTYPE svg PUBLIC "-//W3C//DTD SVG 20010904//EN"
 "http://www.w3.org/TR/2001/REC-SVG-20010904/DTD/svg10.dtd">
<svg version="1.0" xmlns="http://www.w3.org/2000/svg"
 width="702.000000pt" height="579.000000pt" viewBox="0 0 702.000000 579.000000"
 preserveAspectRatio="xMidYMid meet">

<g transform="translate(0.000000,579.000000) scale(0.100000,-0.100000)"
fill="#000000" stroke="none">
<path d="M2820 4894 c-150 -41 -213 -65 -248 -92 -22 -17 -66 -38 -102 -47
-36 -9 -68 -19 -72 -21 -4 -3 2 -25 14 -49 l22 -45 -23 -52 c-54 -125 -103
-265 -131 -375 -47 -192 -111 -557 -125 -718 -7 -82 -16 -157 -19 -166 -5 -10
-31 -19 -82 -26 -117 -17 -132 -38 -164 -235 -26 -162 -26 -208 1 -237 19 -20
28 -22 66 -17 24 3 57 13 74 22 l31 16 -6 -29 c-16 -76 -60 -340 -106 -633
-28 -179 -60 -356 -70 -395 -23 -85 -34 -176 -26 -202 8 -25 47 -43 89 -43 59
1 152 54 178 102 5 10 25 93 44 185 33 165 130 614 201 928 20 88 39 163 42
166 18 17 820 271 832 264 4 -2 10 -37 14 -77 16 -182 47 -527 71 -783 14
-154 28 -367 32 -472 l6 -193 25 0 c33 0 84 26 113 56 22 23 25 39 36 202 11
177 29 625 41 1096 l7 250 32 8 c40 10 63 51 63 111 0 49 -10 61 -57 72 -18 3
-36 12 -40 18 -4 6 -10 88 -14 181 -10 202 -23 340 -50 531 -28 198 -46 263
-83 302 -38 40 -171 106 -329 163 l-117 43 17 26 c27 41 23 116 -8 147 -32 32
-104 39 -179 18z m167 -26 c34 -32 33 -109 -2 -144 -16 -16 -21 -26 -12 -29
318 -111 447 -178 480 -248 17 -34 49 -204 62 -322 3 -33 8 -67 10 -75 7 -26
25 -255 31 -408 4 -81 11 -155 16 -164 5 -10 21 -20 36 -23 46 -10 57 -21 60
-58 5 -53 -21 -95 -63 -103 l-35 -6 -1 -107 c0 -58 -2 -126 -4 -151 -2 -25 -6
-175 -10 -335 -3 -159 -8 -321 -10 -360 -2 -38 -7 -124 -10 -190 -16 -357 -19
-382 -52 -417 -22 -23 -91 -54 -99 -45 -1 1 -5 63 -8 137 -4 74 -9 167 -11
205 -6 77 -7 83 -35 405 -12 124 -27 299 -35 390 -25 295 -38 401 -49 397 -6
-2 -74 -23 -151 -46 -77 -24 -266 -84 -419 -135 l-280 -92 -23 -89 c-13 -50
-41 -175 -63 -280 -43 -208 -68 -323 -100 -460 -11 -49 -34 -157 -50 -240 -17
-82 -35 -166 -40 -185 -23 -86 -157 -153 -230 -115 -31 16 -32 18 -26 68 8 59
9 64 35 177 11 47 32 159 46 250 14 91 27 176 30 190 2 14 16 99 30 190 23
150 38 240 63 373 5 26 7 47 4 47 -3 0 -25 -9 -49 -21 -50 -24 -107 -29 -125
-11 -27 27 -5 245 38 374 19 57 56 78 139 78 55 0 56 1 71 36 8 20 17 83 20
147 3 62 15 159 25 217 11 58 22 121 25 140 45 295 121 567 210 754 l24 49
-20 45 c-11 24 -20 46 -20 47 0 1 27 8 59 15 41 8 76 25 111 51 29 22 59 39
69 40 9 0 57 13 106 29 115 37 198 40 232 8z"/>
<path d="M2789 4363 c-94 -218 -132 -328 -218 -628 -21 -77 -56 -196 -75 -265
-20 -69 -36 -131 -36 -138 0 -17 43 -15 303 9 213 19 454 53 465 64 25 24 -32
437 -96 700 -24 103 -29 113 -72 155 -28 28 -84 66 -148 98 l-102 53 -21 -48z
m109 -12 c98 -50 158 -93 182 -133 38 -64 126 -516 137 -709 l6 -96 -139 -22
c-106 -16 -547 -61 -603 -61 -5 0 0 33 11 73 126 455 188 654 250 810 39 97
72 177 74 177 3 0 39 -18 82 -39z"/>
<path d="M4808 4826 c-20 -7 -66 -34 -103 -61 -155 -110 -261 -237 -323 -387
-87 -209 -161 -583 -182 -918 -11 -168 -16 -234 -45 -560 l-17 -185 -57 -69
c-31 -39 -124 -137 -208 -220 -84 -82 -159 -164 -168 -183 -9 -18 -19 -55 -22
-82 -5 -44 -4 -49 18 -54 13 -4 44 -7 68 -7 42 0 49 4 110 68 36 37 109 114
161 171 l95 105 11 -141 c27 -322 130 -518 323 -614 157 -77 420 -61 664 41
51 21 118 66 227 151 190 148 247 201 272 257 23 52 19 78 -19 114 -54 50 -62
48 -178 -54 -144 -125 -167 -141 -261 -182 -233 -102 -369 -57 -472 155 -76
155 -130 404 -139 639 l-5 136 52 89 c134 233 308 624 363 820 50 178 97 473
97 613 0 250 -118 411 -262 358z m129 -25 c38 -24 76 -86 99 -166 36 -125 19
-362 -47 -664 -55 -244 -214 -623 -391 -929 l-60 -103 7 -117 c7 -127 6 -124
30 -262 48 -288 129 -480 235 -558 70 -52 170 -66 271 -36 62 18 222 96 246
119 64 64 214 185 230 185 28 0 73 -51 73 -84 0 -63 -59 -125 -285 -300 -164
-127 -221 -157 -396 -203 -89 -23 -123 -27 -234 -27 -114 0 -138 3 -195 25
-168 65 -271 198 -335 434 -10 35 -19 121 -22 208 -3 81 -9 147 -14 147 -4 0
-52 -48 -106 -107 -219 -239 -225 -245 -274 -250 -77 -9 -95 35 -50 124 9 18
91 108 182 200 91 92 183 191 206 218 44 54 49 72 58 220 5 87 14 183 20 216
2 9 6 65 10 125 4 60 8 120 10 134 2 14 6 79 10 145 12 222 73 565 137 765 67
210 156 336 338 480 102 80 182 100 247 61z"/>
<path d="M4728 4281 c-20 -17 -45 -53 -56 -79 -40 -93 -132 -488 -166 -717 -4
-22 -11 -67 -16 -100 -5 -33 -12 -87 -16 -120 -6 -53 -5 -58 9 -47 26 22 133
210 180 317 88 198 202 557 213 668 7 78 -5 97 -67 104 -41 5 -50 2 -81 -26z
m111 3 c22 -16 23 -21 18 -93 -8 -124 -132 -500 -232 -706 -61 -126 -127 -234
-133 -217 -4 14 33 271 59 412 24 122 101 435 124 500 23 66 77 117 125 119 9
1 26 -6 39 -15z"/>
</g>
</svg>
