<svg xmlns="http://www.w3.org/2000/svg" version="1.1" xmlns:xlink="http://www.w3.org/1999/xlink" xmlns:svgjs="http://svgjs.dev/svgjs" width="1000" height="1000" viewBox="0 0 1000 1000"><rect width="1000" height="1000" fill="#ffffff"></rect><g transform="matrix(0.7,0,0,0.7,149.57575757575756,181.85000000000002)"><svg viewBox="0 0 396 320" data-background-color="#ffffff" preserveAspectRatio="xMidYMid meet" height="808" width="1000" xmlns="http://www.w3.org/2000/svg" xmlns:xlink="http://www.w3.org/1999/xlink"><g id="tight-bounds" transform="matrix(1,0,0,1,0.2400000000000091,20)"><svg viewBox="0 0 395.52 280" height="280" width="395.52"><g><svg viewBox="0 0 395.52 280" height="280" width="395.52"><g><svg viewBox="0 0 395.52 280" height="280" width="395.52"><g><svg viewBox="0 0 395.52 280" height="280" width="395.52"><g><svg viewBox="0 0 395.52 280" height="280" width="395.52"><g transform="matrix(1,0,0,1,-6.455929493868894,-24.991582276861095)"><svg viewBox="0 0 408.43185898773777 329.9831645537222" height="329.9831645537222" width="408.43185898773777"><g><circle r="1.6e+2" cx="204.21592949386888" cy="164.9915822768611" fill="#755bb4" data-fill-palette-color="accent"></circle><svg xmlns="http://www.w3.org/2000/svg" xmlns:xlink="http://www.w3.org/1999/xlink" version="1.1" x="69.91871852372581" y="69.91871852372583" viewBox="9.638 3.247 80.72399999999999 93.507" enable-background="new 0 0 100 100" xml:space="preserve" height="190.14572750627053" width="268.59442194028617" class="icon-ef-0" data-fill-palette-color="quaternary" id="ef-0"><g fill="#ffffff" data-fill-palette-color="quaternary"><g fill="#ffffff" data-fill-palette-color="quaternary"><polygon points="36.703,11.011 9.638,26.636 9.638,38.757 36.703,23.131 63.767,38.757 63.767,26.636   " fill="#ffffff" data-fill-palette-color="quaternary"></polygon></g><g fill="#ffffff" data-fill-palette-color="quaternary"><polygon points="63.298,89.092 36.233,73.467 36.233,61.348 63.298,76.973 90.362,61.348 90.362,73.467   " fill="#ffffff" data-fill-palette-color="quaternary"></polygon></g><g fill="#ffffff" data-fill-palette-color="quaternary"><polygon points="9.638,42.012 36.703,26.386 47.198,32.446 20.134,48.072 20.134,79.324 9.638,73.264   " fill="#ffffff" data-fill-palette-color="quaternary"></polygon></g><g fill="#ffffff" data-fill-palette-color="quaternary"><polygon points="77.083,18.872 50.018,3.247 39.522,9.307 66.586,24.932 66.586,56.184 77.083,50.124   " fill="#ffffff" data-fill-palette-color="quaternary"></polygon></g><g fill="#ffffff" data-fill-palette-color="quaternary"><polygon points="23.01,81.127 23.011,49.876 33.507,43.816 33.507,75.068 60.571,90.693 50.075,96.754   " fill="#ffffff" data-fill-palette-color="quaternary"></polygon></g><g fill="#ffffff" data-fill-palette-color="quaternary"><polygon points="90.362,58.092 90.362,26.84 79.866,20.78 79.866,52.031 52.802,67.658 63.298,73.719   " fill="#ffffff" data-fill-palette-color="quaternary"></polygon></g></g></svg></g></svg></g><path d="M187.081 17.446L186.545 28.492 183.191 28.569 184.578 0.579 188.849 0.481 192.775 10.596 197.554 23.507C199.054 18.94 200.528 14.566 201.977 10.386V10.386L205.606 0.098 209.867 0 212.962 27.888 209.599 27.965 208.398 16.959 207.117 4.586C205.746 8.712 204.334 12.878 202.879 17.085V17.085L199.225 27.583 196.032 27.656 192.101 17.332 187.591 5.283C187.616 6.361 187.446 10.415 187.081 17.446ZM187.104 268.386L186.063 279.396 182.709 279.319 185.375 251.421 189.646 251.519 193.106 261.803 197.289 274.919C198.996 270.425 200.669 266.123 202.307 262.013V262.013L206.403 251.902 210.664 252 212.48 280 209.117 279.923 208.421 268.873 207.707 256.455C206.149 260.514 204.548 264.611 202.902 268.747V268.747L198.772 279.067 195.578 278.994 192.123 268.5 188.17 256.258C188.145 257.336 187.79 261.378 187.104 268.386ZM68.773 143.413C68.773 141.644 70.207 140.21 71.976 140.21 73.745 140.21 75.179 141.644 75.179 143.413 75.179 145.182 73.745 146.616 71.976 146.616 70.207 146.616 68.773 145.182 68.773 143.413ZM320.341 143.413C320.341 141.644 321.775 140.21 323.544 140.21 325.313 140.21 326.747 141.644 326.747 143.413 326.747 145.182 325.313 146.616 323.544 146.616 321.775 146.616 320.341 145.182 320.341 143.413Z" fill="#755bb4" data-fill-palette-color="primary"></path></svg></g></svg></g></svg></g></svg></g><defs></defs></svg><rect width="395.52" height="280" fill="none" stroke="none" visibility="hidden"></rect></g></svg></g></svg>